<svg width="132" height="39" viewBox="0 0 132 39" fill="none" xmlns="http://www.w3.org/2000/svg">
<path d="M130.166 34.2415C130.166 34.7302 130.069 35.2141 129.882 35.6655C129.695 36.1169 129.421 36.527 129.075 36.8723C128.729 37.2177 128.318 37.4915 127.867 37.6781C127.415 37.8648 126.931 37.9606 126.442 37.9601H4.59252C3.60492 37.9611 2.65735 37.5699 1.95819 36.8726C1.25903 36.1753 0.865545 35.2289 0.864258 34.2415V4.58746C0.865544 3.59968 1.25888 2.65278 1.9579 1.95468C2.65691 1.25657 3.60447 0.864331 4.59252 0.864075H126.441C126.93 0.864075 127.414 0.96039 127.866 1.14752C128.318 1.33465 128.729 1.60893 129.074 1.95469C129.42 2.30045 129.694 2.71092 129.881 3.16266C130.069 3.61439 130.165 4.09854 130.165 4.58746L130.166 34.2415Z" fill="white"/>
<path d="M126.442 38.8252H4.59258C3.37598 38.8249 2.20916 38.3422 1.34816 37.4829C0.487166 36.6235 0.00231487 35.4578 0 34.2416L0 4.58846C0.00179979 3.37157 0.486331 2.20508 1.3473 1.34489C2.20827 0.484689 3.37537 0.0010271 4.59258 0L126.441 0C127.658 0.0015396 128.825 0.485366 129.686 1.34545C130.547 2.20554 131.032 3.37173 131.034 4.58846V34.2416C131.036 36.7698 128.972 38.8252 126.442 38.8252Z" fill="#151515"/>
<path d="M130.166 34.2415C130.166 34.7302 130.069 35.2141 129.882 35.6655C129.695 36.1169 129.421 36.527 129.075 36.8723C128.729 37.2177 128.318 37.4915 127.867 37.6781C127.415 37.8648 126.931 37.9606 126.442 37.9601H4.59252C3.60492 37.9611 2.65735 37.5699 1.95819 36.8726C1.25903 36.1753 0.865545 35.2289 0.864258 34.2415V4.58746C0.865544 3.59968 1.25888 2.65278 1.9579 1.95468C2.65691 1.25657 3.60447 0.864331 4.59252 0.864075H126.441C126.93 0.864075 127.414 0.96039 127.866 1.14752C128.318 1.33465 128.729 1.60893 129.074 1.95469C129.42 2.30045 129.694 2.71092 129.881 3.16266C130.069 3.61439 130.165 4.09854 130.165 4.58746L130.166 34.2415Z" fill="#151515"/>
<path d="M29.2589 19.2082C29.2307 16.079 31.8217 14.5566 31.9402 14.4857C30.4728 12.3469 28.1984 12.0546 27.3991 12.0313C25.4888 11.8303 23.6359 13.1741 22.6628 13.1741C21.6703 13.1741 20.1718 12.0507 18.5567 12.0838C16.4785 12.1158 14.5342 13.3187 13.4679 15.1867C11.2673 18.9956 12.9085 24.5928 15.0169 27.6715C16.0716 29.1803 17.304 30.8628 18.917 30.8036C20.4952 30.7395 21.0847 29.7987 22.9891 29.7987C24.876 29.7987 25.4296 30.8036 27.0747 30.7657C28.7684 30.7395 29.8348 29.2511 30.8525 27.7297C32.0713 26.0025 32.5608 24.2996 32.5802 24.2122C32.5414 24.1986 29.2919 22.9578 29.2589 19.2082ZM26.1512 10.006C27 8.94485 27.5807 7.50112 27.4195 6.03604C26.191 6.09041 24.6546 6.88558 23.7699 7.92346C22.9871 8.83805 22.2879 10.3371 22.4686 11.7469C23.8486 11.8498 25.2655 11.0507 26.1512 10.006Z" fill="white"/>
<path d="M126.443 0H61.1768L86.7404 38.8252H126.443C127.66 38.8241 128.827 38.3407 129.688 37.481C130.549 36.6212 131.033 35.4552 131.036 34.2387V4.58846C131.034 3.37165 130.549 2.20531 129.688 1.34517C128.827 0.485028 127.66 0.00128344 126.443 0Z" fill="url(#paint0_linear_92_146)"/>
<path d="M52.117 30.5871H49.9115L48.7034 26.7919H44.5041L43.3533 30.5871H41.2061L45.3674 17.6664H47.9371L52.117 30.5871ZM48.3392 25.1996L47.2466 21.8257C47.1311 21.4811 46.9135 20.6694 46.595 19.3917H46.5561C46.4279 19.9412 46.223 20.7529 45.9424 21.8257L44.8683 25.1996H48.3392ZM62.7977 25.8142C62.7977 27.3987 62.3675 28.6511 61.5061 29.5706C60.735 30.389 59.7764 30.7978 58.6334 30.7978C57.3991 30.7978 56.5114 30.358 55.9724 29.4764V34.3649H53.9019V24.3326C53.9019 23.3374 53.8757 22.317 53.8252 21.2704H55.6461L55.7617 22.7471H55.8005C56.491 21.6345 57.5389 21.0782 58.9451 21.0782C60.0445 21.0782 60.9622 21.5121 61.6964 22.3811C62.4296 23.252 62.7977 24.3957 62.7977 25.8142ZM60.6884 25.8899C60.6884 24.9831 60.4844 24.2355 60.0746 23.6462C59.6269 23.0335 59.0257 22.7267 58.2721 22.7267C57.7613 22.7267 57.2971 22.8976 56.8824 23.2345C56.4668 23.5743 56.1948 24.018 56.0676 24.5676C56.0108 24.7731 55.9785 24.9846 55.9715 25.1977V26.7521C55.9715 27.4288 56.1793 28.0006 56.595 28.4686C57.0106 28.9346 57.5506 29.1686 58.2148 29.1686C58.9947 29.1686 59.6016 28.8667 60.0357 28.2676C60.4708 27.6667 60.6884 26.8744 60.6884 25.8899ZM73.5163 25.8142C73.5163 27.3987 73.0861 28.6511 72.2247 29.5706C71.4526 30.389 70.4951 30.7978 69.3511 30.7978C68.1167 30.7978 67.2291 30.358 66.6901 29.4764V34.3649H64.6196V24.3326C64.6196 23.3374 64.5934 22.317 64.5429 21.2704H66.3638L66.4794 22.7471H66.5182C67.2077 21.6345 68.2556 21.0782 69.6628 21.0782C70.7612 21.0782 71.6789 21.5121 72.415 22.3811C73.1473 23.252 73.5163 24.3957 73.5163 25.8142ZM71.406 25.8899C71.406 24.9831 71.2011 24.2355 70.7913 23.6462C70.3436 23.0335 69.7444 22.7267 68.9908 22.7267C68.4799 22.7267 68.0157 22.8976 67.5991 23.2345C67.1834 23.5743 66.9125 24.018 66.7853 24.5676C66.7221 24.8239 66.6881 25.0326 66.6881 25.1977V26.7521C66.6881 27.4288 66.8969 28.0006 67.3107 28.4686C67.7263 28.9337 68.2663 29.1686 68.9325 29.1686C69.7133 29.1686 70.3203 28.8667 70.7534 28.2676C71.1885 27.6667 71.406 26.8744 71.406 25.8899ZM85.5004 26.9628C85.5004 28.0628 85.1158 28.957 84.3515 29.6473C83.5105 30.4007 82.3363 30.7784 80.8311 30.7784C79.4404 30.7784 78.3255 30.5104 77.4845 29.9735L77.9632 28.2482C78.8713 28.7861 79.8686 29.0541 80.9544 29.0541C81.7352 29.0541 82.3422 28.8774 82.7753 28.5269C83.2094 28.1754 83.4289 27.7055 83.4289 27.1191C83.4289 26.5938 83.2473 26.154 82.8909 25.7957C82.5325 25.4384 81.9401 25.1054 81.1078 24.7996C78.845 23.9559 77.7127 22.7219 77.7127 21.0985C77.7127 20.0383 78.1128 19.1703 78.9111 18.4917C79.7094 17.814 80.7679 17.4752 82.0848 17.4752C83.2609 17.4752 84.2408 17.68 85.0187 18.0888L84.4991 19.7762C83.7669 19.3801 82.9404 19.182 82.0159 19.182C81.2856 19.182 80.7126 19.3616 80.3027 19.7189C79.958 20.0383 79.7832 20.4277 79.7832 20.8898C79.7832 21.3995 79.9823 21.8228 80.3785 22.1549C80.7223 22.4607 81.3496 22.7937 82.2567 23.151C83.3696 23.5996 84.1874 24.1219 84.7108 24.7219C85.2381 25.3219 85.5004 26.0705 85.5004 26.9628ZM92.3635 22.8238H90.0813V27.3472C90.0813 28.4977 90.4833 29.0715 91.2894 29.0715C91.6594 29.0715 91.9663 29.0405 92.2091 28.9754L92.2664 30.5473C91.8585 30.6997 91.3214 30.7764 90.6562 30.7764C89.8385 30.7764 89.1995 30.5269 88.7382 30.0279C88.2788 29.5288 88.0477 28.6929 88.0477 27.5162V22.8199H86.6881V21.2665H88.0477V19.5606L90.0813 18.947V21.2665H92.3635V22.8238ZM102.64 25.8521C102.64 27.2841 102.23 28.4599 101.413 29.3793C100.557 30.3259 99.4189 30.7978 98.0001 30.7978C96.6307 30.7978 95.5421 30.3444 94.7302 29.4385C93.9183 28.5308 93.5124 27.387 93.5124 26.0074C93.5124 24.5637 93.9319 23.3811 94.7681 22.4617C95.6062 21.5413 96.7347 21.0811 98.1535 21.0811C99.5209 21.0811 100.619 21.5354 101.451 22.4423C102.245 23.3219 102.64 24.4578 102.64 25.8521ZM100.494 25.8996C100.494 25.0462 100.309 24.3142 99.9395 23.7015C99.5054 22.9617 98.8838 22.5918 98.0787 22.5918C97.2494 22.5918 96.6133 22.9617 96.1801 23.7015C95.8092 24.3142 95.6246 25.0588 95.6246 25.9385C95.6246 26.7928 95.8092 27.5268 96.1801 28.1375C96.6278 28.8774 97.2523 29.2473 98.0613 29.2473C98.8527 29.2473 99.4733 28.8696 99.922 28.1191C100.303 27.4919 100.494 26.755 100.494 25.8996ZM109.373 23.0908C109.158 23.052 108.939 23.0328 108.721 23.0335C107.992 23.0335 107.429 23.3073 107.033 23.8588C106.689 24.3442 106.516 24.9579 106.516 25.6986V30.5871H104.446V24.2044C104.447 23.2264 104.427 22.2485 104.385 21.2714H106.189L106.265 23.0539H106.322C106.541 22.4413 106.885 21.9471 107.357 21.5772C107.789 21.254 108.314 21.0789 108.854 21.0782C109.045 21.0782 109.218 21.0917 109.371 21.116L109.373 23.0908ZM118.633 25.488C118.638 25.8026 118.613 26.1171 118.557 26.4268H112.346C112.369 27.3472 112.67 28.0521 113.247 28.5375C113.771 28.9706 114.448 29.188 115.279 29.188C116.199 29.188 117.038 29.0424 117.792 28.7482L118.117 30.1842C117.235 30.5687 116.194 30.7599 114.992 30.7599C113.547 30.7599 112.413 30.3347 111.587 29.4861C110.764 28.6366 110.351 27.4948 110.351 26.0647C110.351 24.6608 110.735 23.4908 111.503 22.5578C112.307 21.5617 113.394 21.0636 114.761 21.0636C116.104 21.0636 117.121 21.5617 117.812 22.5578C118.358 23.3471 118.633 24.3258 118.633 25.488ZM116.659 24.9511C116.673 24.3365 116.537 23.8073 116.257 23.3598C115.898 22.783 115.347 22.4957 114.608 22.4957C113.931 22.4957 113.379 22.7763 112.96 23.3394C112.615 23.787 112.41 24.3248 112.347 24.9491L116.659 24.9511Z" fill="white"/>
<path d="M43.9067 13.0984C43.3309 13.0984 42.8327 13.0702 42.418 13.0226V6.77588C42.9979 6.68631 43.584 6.64216 44.1709 6.64383C46.5454 6.64383 47.6389 7.81182 47.6389 9.71575C47.6389 11.9119 46.3473 13.0984 43.9067 13.0984ZM44.2544 7.44482C43.9339 7.44482 43.661 7.46424 43.4348 7.51084V12.2595C43.5571 12.2789 43.7921 12.2877 44.1223 12.2877C45.6781 12.2877 46.5638 11.4022 46.5638 9.74391C46.5638 8.26523 45.7626 7.44482 44.2544 7.44482ZM51.0467 13.1459C49.7084 13.1459 48.8412 12.1469 48.8412 10.7905C48.8412 9.37691 49.7269 8.36912 51.1224 8.36912C52.4412 8.36912 53.3279 9.32059 53.3279 10.7158C53.3279 12.1469 52.414 13.1459 51.0467 13.1459ZM51.0855 9.11282C50.3503 9.11282 49.8793 9.80022 49.8793 10.7614C49.8793 11.7041 50.3601 12.3915 51.0758 12.3915C51.7915 12.3915 52.2723 11.6566 52.2723 10.742C52.2723 9.80993 51.8013 9.11282 51.0855 9.11282ZM60.9592 8.46329L59.5268 13.042H58.5935L58.0001 11.0536C57.8526 10.5673 57.7297 10.0737 57.6321 9.57497H57.6126C57.5379 10.074 57.3961 10.574 57.2455 11.0536L56.6143 13.042H55.6713L54.3233 8.46329H55.3693L55.8879 10.64C56.0102 11.1585 56.1132 11.6478 56.1986 12.11H56.2181C56.2928 11.7245 56.4152 11.243 56.5949 10.6498L57.2455 8.46426H58.0749L58.6974 10.6031C58.8479 11.1216 58.9703 11.6304 59.0655 12.111H59.0927C59.1587 11.6401 59.2626 11.1401 59.4034 10.6031L59.9599 8.46426L60.9592 8.46329ZM66.2326 13.042H65.2148V10.4129C65.2148 9.60313 64.904 9.19729 64.2912 9.19729C63.6882 9.19729 63.2735 9.71575 63.2735 10.3187V13.042H62.2557V9.77206C62.2557 9.3672 62.246 8.93321 62.2178 8.46232H63.1132L63.1608 9.16914H63.189C63.4629 8.6798 64.0184 8.36912 64.6409 8.36912C65.6023 8.36912 66.2336 9.10409 66.2336 10.3002L66.2326 13.042ZM69.0392 13.042H68.0205V6.36227H69.0392V13.042ZM72.75 13.1459C71.4127 13.1459 70.5445 12.1469 70.5445 10.7905C70.5445 9.37691 71.4302 8.36912 72.8248 8.36912C74.1446 8.36912 75.0303 9.32059 75.0303 10.7158C75.0312 12.1469 74.1164 13.1459 72.75 13.1459ZM72.7879 9.11282C72.0527 9.11282 71.5817 9.80022 71.5817 10.7614C71.5817 11.7041 72.0634 12.3915 72.7772 12.3915C73.4939 12.3915 73.9736 11.6566 73.9736 10.742C73.9746 9.80993 73.5046 9.11282 72.7879 9.11282ZM79.0431 13.042L78.9693 12.5148H78.9421C78.6313 12.9391 78.1778 13.1459 77.6028 13.1459C76.7822 13.1459 76.1995 12.5712 76.1995 11.7983C76.1995 10.6682 77.1794 10.0837 78.876 10.0837V9.99925C78.876 9.39632 78.5565 9.09438 77.9253 9.09438C77.4737 9.09438 77.0775 9.20797 76.7288 9.43419L76.522 8.76524C76.9454 8.50116 77.4737 8.36912 78.0943 8.36912C79.2907 8.36912 79.8948 9.0002 79.8948 10.2633V11.9498C79.8948 12.4119 79.9152 12.7702 79.9608 13.043L79.0431 13.042ZM78.9032 10.7614C77.7728 10.7614 77.2056 11.0352 77.2056 11.6847C77.2056 12.1653 77.498 12.4003 77.9039 12.4003C78.4215 12.4003 78.9032 12.0051 78.9032 11.4682V10.7614ZM84.837 13.042L84.7894 12.3071H84.7612C84.4689 12.8624 83.9775 13.1459 83.2909 13.1459C82.1867 13.1459 81.369 12.175 81.369 10.809C81.369 9.37691 82.2168 8.36815 83.3744 8.36815C83.9872 8.36815 84.4213 8.57495 84.666 8.99049H84.6864V6.36227H85.7052V11.808C85.7052 12.2508 85.7159 12.6653 85.7431 13.042H84.837ZM84.6864 10.3478C84.6864 9.70701 84.262 9.1604 83.6143 9.1604C82.8597 9.1604 82.3984 9.82934 82.3984 10.7711C82.3984 11.6944 82.8772 12.3265 83.5939 12.3265C84.2339 12.3265 84.6864 11.7702 84.6864 11.1109V10.3478ZM92.1643 13.1459C90.827 13.1459 89.9598 12.1469 89.9598 10.7905C89.9598 9.37691 90.8455 8.36912 92.2401 8.36912C93.5599 8.36912 94.4456 9.32059 94.4456 10.7158C94.4465 12.1469 93.5327 13.1459 92.1643 13.1459ZM92.2022 9.11282C91.468 9.11282 90.997 9.80022 90.997 10.7614C90.997 11.7041 91.4777 12.3915 92.1925 12.3915C92.9092 12.3915 93.3889 11.6566 93.3889 10.742C93.3909 9.80993 92.9199 9.11282 92.2022 9.11282ZM99.919 13.042H98.9002V10.4129C98.9002 9.60313 98.5895 9.19729 97.9767 9.19729C97.3736 9.19729 96.9599 9.71575 96.9599 10.3187V13.042H95.9411V9.77206C95.9411 9.3672 95.9314 8.93321 95.9033 8.46232H96.7987L96.8463 9.16914H96.8744C97.1473 8.6798 97.7038 8.36815 98.3253 8.36815C99.2868 8.36815 99.919 9.10311 99.919 10.2993V13.042ZM106.767 9.22642H105.647V11.4498C105.647 12.0158 105.843 12.2983 106.239 12.2983C106.419 12.2983 106.569 12.2789 106.691 12.2508L106.719 13.0236C106.522 13.0993 106.258 13.1372 105.929 13.1372C105.127 13.1372 104.648 12.6945 104.648 11.5352V9.22642H103.979V8.46329H104.648V7.62444L105.647 7.32249V8.46232H106.767V9.22642ZM112.155 13.042H111.138V10.4323C111.138 9.61283 110.828 9.19826 110.214 9.19826C109.687 9.19826 109.195 9.55652 109.195 10.2818V13.042H108.179V6.36227H109.195V9.11282H109.216C109.536 8.61378 110.001 8.36815 110.593 8.36815C111.562 8.36815 112.155 9.12156 112.155 10.3187V13.042ZM117.675 10.9973H114.62C114.64 11.8643 115.214 12.3537 116.063 12.3537C116.515 12.3537 116.931 12.2779 117.298 12.1372L117.456 12.844C117.023 13.0323 116.513 13.1265 115.92 13.1265C114.487 13.1265 113.639 12.2216 113.639 10.8187C113.639 9.41477 114.508 8.35941 115.805 8.35941C116.975 8.35941 117.71 9.22642 117.71 10.5362C117.716 10.6907 117.704 10.8455 117.675 10.9973ZM116.741 10.2721C116.741 9.56526 116.385 9.06622 115.734 9.06622C115.15 9.06622 114.687 9.57497 114.621 10.2721H116.741Z" fill="white"/>
<defs>
<linearGradient id="paint0_linear_92_146" x1="96.1051" y1="38.9282" x2="96.1051" y2="-101.094" gradientUnits="userSpaceOnUse">
<stop stop-color="#1A1A1A" stop-opacity="0.1"/>
<stop offset="0.123" stop-color="#212121" stop-opacity="0.151"/>
<stop offset="0.308" stop-color="#353535" stop-opacity="0.227"/>
<stop offset="0.532" stop-color="#575757" stop-opacity="0.318"/>
<stop offset="0.783" stop-color="#858585" stop-opacity="0.421"/>
<stop offset="1" stop-color="#B3B3B3" stop-opacity="0.51"/>
</linearGradient>
</defs>
</svg>
